# xmcd CD database file
#
# Track frame offsets:
#	150
#	21855
#	40875
#	62570
#
# Disc length: 1085 seconds
#
# Revision: 1
# Processed by: cddbd v1.5.1PL0 Copyright (c) Steve Scherf et al.
# Submitted via: CDex 1.51
#
DISCID=2b043b04
DTITLE=金月真美 - トワイライト・アヴェニュー
DYEAR=1999
DGENRE=JPop
TTITLE0=トワイライト・アヴェニュー
TTITLE1=Do you remember me
TTITLE2=トワイライト・アヴェニュー(Vocalless ver.)
TTITLE3=Do you remember me(Vocalless ver.)
EXTD=YEAR: 1999
EXTT0=
EXTT1=
EXTT2=
EXTT3=
PLAYORDER=
